<svg id="SvgjsSvg1006" width="288" height="288" xmlns="http://www.w3.org/2000/svg" version="1.1" xmlns:xlink="http://www.w3.org/1999/xlink" xmlns:svgjs="http://svgjs.com/svgjs"><defs id="SvgjsDefs1007"></defs><g id="SvgjsG1008" transform="matrix(1,0,0,1,0,0)"><svg xmlns="http://www.w3.org/2000/svg" width="288" height="288" enable-background="new 0 0 64 64" viewBox="0 0 64 64"><path d="M8.9,62.8c-0.7,0-1.3-0.2-1.9-0.5c-1.2-0.7-2-1.9-2-3.3V5c0-1.4,0.7-2.6,2-3.3c1.2-0.7,2.7-0.7,3.9,0.1l46.4,27
		c1.2,0.7,1.8,1.9,1.8,3.2c0,1.3-0.7,2.5-1.8,3.2l-46.4,27C10.3,62.6,9.6,62.8,8.9,62.8z M8.8,4.8c-0.1,0-0.2,0-0.2,0.1
		C8.5,4.9,8.5,5,8.5,5v53.9c0,0,0,0.2,0.2,0.2c0.1,0,0.2,0.1,0.4,0l46.4-27c0,0,0,0,0,0c0,0,0.1-0.1,0.1-0.2c0-0.1-0.1-0.2-0.1-0.2
		L9,4.8C9,4.8,8.9,4.8,8.8,4.8z" fill="#ffffff" class="color000 svgShape"></path></svg></g></svg>